<?xml version="1.0" standalone="no"?><!DOCTYPE svg PUBLIC "-//W3C//DTD SVG 1.1//EN" "http://www.w3.org/Graphics/SVG/1.1/DTD/svg11.dtd"><svg t="1593140808796" class="icon" viewBox="0 0 1024 1024" version="1.1" xmlns="http://www.w3.org/2000/svg" p-id="2008" xmlns:xlink="http://www.w3.org/1999/xlink" width="200" height="200"><defs><style type="text/css"></style></defs><path d="M911.36 496L534.4 119.04a32.64 32.64 0 0 0-45.44 0L112.64 496a32 32 0 1 0 45.44 45.44L512 186.88l353.92 353.92a32 32 0 0 0 45.44-45.44z" fill="#040c32" p-id="2009"></path><path d="M752 504.32a32 32 0 0 0-32 32v209.28H618.88V640a32 32 0 0 0-32-32H437.12a32 32 0 0 0-32 32v105.6H304V536.32a32 32 0 0 0-64 0v241.28a32 32 0 0 0 32 32h165.12a32 32 0 0 0 32-32V672h85.76v105.6a32 32 0 0 0 32 32h165.12a32 32 0 0 0 32-32V536.32a32 32 0 0 0-32-32z" fill="#040c32" p-id="2010"></path></svg>