<?xml version="1.0" standalone="no"?><!DOCTYPE svg PUBLIC "-//W3C//DTD SVG 1.1//EN" "http://www.w3.org/Graphics/SVG/1.1/DTD/svg11.dtd"><svg t="1594891497073" class="icon" viewBox="0 0 1039 1024" version="1.1" xmlns="http://www.w3.org/2000/svg" p-id="2059" xmlns:xlink="http://www.w3.org/1999/xlink" width="16.234375" height="16"><defs><style type="text/css"></style></defs><path d="M539.962335 906.365348c-169.702448 0-325.905838-113.777778-372.188324-285.408663-26.998117-100.278719-13.499058-202.485876 38.568739-293.12241 52.067797-88.708098 134.990584-152.346516 233.340866-179.344633 100.278719-26.998117 202.485876-13.499058 293.12241 38.568738 88.708098 52.067797 152.346516 134.990584 179.344633 233.340867 13.499058 52.067797 17.355932 106.06403 7.713748 160.060263-3.856874 21.212806-23.141243 34.711864-44.354049 32.783428-21.212806-3.856874-34.711864-23.141243-32.783428-44.354049 7.713748-42.425612 5.785311-86.779661-5.78531-129.205273-21.212806-79.065913-71.352166-146.561205-142.704332-187.058381-71.352166-40.497175-154.274953-52.067797-233.340866-30.85499-163.917137 44.354049-262.26742 212.12806-217.913371 377.973634 44.354049 163.917137 212.12806 262.26742 377.973634 217.913371 21.212806-5.785311 42.425612 7.713748 46.282486 26.998117 5.785311 21.212806-7.713748 42.425612-26.998116 46.282486-34.711864 11.570621-67.495292 15.427495-100.27872 15.427495z" fill="#388CEB" p-id="2060"></path><path d="M173.559322 433.898305c-32.783427 0-57.853107 25.06968-57.853107 57.853107v77.137477c0 32.783427 25.06968 57.853107 57.853107 57.853107s57.853107-25.06968 57.853107-57.853107v-77.137477c0-30.854991-25.06968-57.853107-57.853107-57.853107zM906.365348 433.898305c-32.783427 0-57.853107 25.06968-57.853107 57.853107v77.137477c0 32.783427 25.06968 57.853107 57.853107 57.853107s57.853107-25.06968 57.853108-57.853107v-77.137477c0-30.854991-25.06968-57.853107-57.853108-57.853107z" fill="#388CEB" p-id="2061"></path><path d="M424.256121 501.393597m-77.137477 0a77.137476 77.137476 0 1 0 154.274953 0 77.137476 77.137476 0 1 0-154.274953 0Z" fill="#E78E00" p-id="2062"></path><path d="M655.66855 501.393597m-77.137477 0a77.137476 77.137476 0 1 0 154.274953 0 77.137476 77.137476 0 1 0-154.274953 0Z" fill="#E78E00" p-id="2063"></path></svg>