<?xml version="1.0" standalone="no"?><!DOCTYPE svg PUBLIC "-//W3C//DTD SVG 1.1//EN" "http://www.w3.org/Graphics/SVG/1.1/DTD/svg11.dtd"><svg t="1595928443957" class="icon" viewBox="0 0 1024 1024" version="1.1" xmlns="http://www.w3.org/2000/svg" p-id="3945" xmlns:xlink="http://www.w3.org/1999/xlink" width="32" height="32"><defs><style type="text/css"></style></defs><path d="M194.4 823.2c-9.6 0-17.6-6.4-20-16L72 366.4H60c-26.4-0.8-47.2-22.4-47.2-48.8s21.6-48 48.8-48c26.4 0 48.8 21.6 48.8 48.8 0 6.4-1.6 13.6-4 20l-7.2 13.6 217.6 97.6L496 172l-12-8.8c-12.8-8.8-20.8-24-20.8-40 0-26.4 21.6-48.8 48.8-48.8s48.8 21.6 48.8 48.8c0 16-8 31.2-20.8 40l-12 8 160 278.4 236.8-98.4-6.4-14.4c-2.4-6.4-4-12.8-4-19.2 0-26.4 21.6-48.8 48.8-48.8 26.4 0 48.8 21.6 48.8 48.8 0 26.4-21.6 48.8-48.8 48.8h-13.6L847.2 808c-2.4 9.6-10.4 16-20 16H194.4z m16-40h601.6l88-377.6-212 88c-2.4 0.8-4.8 1.6-8 1.6-7.2 0-13.6-4-17.6-9.6L510.4 224 340.8 485.6c-4 5.6-10.4 9.6-16.8 9.6-3.2 0-5.6-0.8-8-1.6L123.2 407.2l87.2 376zM161.6 936c-13.6 0-24-10.4-24-24s10.4-24 24-24h699.2c13.6 0 24 10.4 24 24s-10.4 24-24 24H161.6z" fill="#E8677E" p-id="3946"></path></svg>