<?xml version="1.0" standalone="no"?><!DOCTYPE svg PUBLIC "-//W3C//DTD SVG 1.1//EN" "http://www.w3.org/Graphics/SVG/1.1/DTD/svg11.dtd"><svg t="1595852667203" class="icon" viewBox="0 0 1025 1024" version="1.1" xmlns="http://www.w3.org/2000/svg" p-id="2941" width="48.046875" height="48" xmlns:xlink="http://www.w3.org/1999/xlink"><defs><style type="text/css"></style></defs><path d="M513.962667 0c-282.766222 0-512 229.233778-512 512s229.233778 512 512 512 512-229.233778 512-512-229.219556-512-512-512zM220.828444 871.608889c8.163556-154.823111 136.32-278.371556 293.148445-278.371556 156.814222 0 284.970667 123.548444 293.134222 278.385778-79.985778 65.322667-182.044444 104.590222-293.134222 104.590222-111.089778-0.014222-213.162667-39.281778-293.148445-104.604444zM386.844444 408.618667c0-70.101333 57.031111-127.118222 127.118223-127.118223s127.118222 57.031111 127.118222 127.118223-57.031111 127.118222-127.118222 127.118222S386.844444 478.72 386.844444 408.618667z m464.113778 422.129777c-21.959111-131.569778-119.310222-237.880889-246.016-272.924444 50.275556-30.72 83.953778-85.959111 83.953778-149.191111 0-96.611556-78.321778-174.919111-174.919111-174.919111-96.611556 0-174.919111 78.321778-174.919111 174.919111 0 63.232 33.678222 118.471111 83.953778 149.205333-126.705778 35.043556-224.056889 141.354667-246.016 272.924445C98.218667 747.52 49.763556 635.349333 49.763556 512c0-255.957333 208.241778-464.199111 464.199111-464.199111 255.957333 0 464.199111 208.241778 464.199111 464.199111 0 123.349333-48.455111 235.534222-127.203556 318.748444z" p-id="2942" fill="#cdcdcd"></path></svg>