<?xml version="1.0" standalone="no"?><!DOCTYPE svg PUBLIC "-//W3C//DTD SVG 1.1//EN" "http://www.w3.org/Graphics/SVG/1.1/DTD/svg11.dtd"><svg t="1595928505850" class="icon" viewBox="0 0 1024 1024" version="1.1" xmlns="http://www.w3.org/2000/svg" p-id="5021" xmlns:xlink="http://www.w3.org/1999/xlink" width="32" height="32"><defs><style type="text/css"></style></defs><path d="M860.397898 715.100698l-513.658779 0c-2.804882 0-7.589862-3.997034-8.222265-9.335622l-49.822732-350.723873-27.975145-161.320129c-6.300496-51.511187-51.683103-91.877547-103.307877-91.877547l-56.874335 0c-10.876722 0-19.674085 8.797363-19.674085 19.674085 0 10.875698 8.80248 19.674085 19.674085 19.674085l56.874335 0c32.085766 0 60.329017 25.190729 64.403822 58.295708l28.011984 161.682379 49.66719 349.70466c2.883677 24.035416 24.077372 43.574425 47.246047 43.574425l513.658779 0c10.872628 0 19.674085-8.797363 19.674085-19.674085C880.073007 723.902154 871.270527 715.100698 860.397898 715.100698L860.397898 715.100698zM860.397898 715.100698" p-id="5022" fill="#E8677E"></path><path d="M925.820933 203.003484c-8.41567-9.530051-19.50217-14.564717-32.029484-14.564717L363.284957 188.438767c-10.876722 0-19.674085 8.80248-19.674085 19.674085 0 10.876722 8.797363 19.674085 19.674085 19.674085l530.506493 0c0.960885 0 1.458211 0.062422 2.533706 1.2689 2.632967 2.977821 4.979408 9.993608 4.26821 16.063861l-52.857858 302.786071c-0.788969 6.321986-7.840572 12.126178-16.121166 12.219299l-410.863578 30.30112c-10.835789 0.788969-18.984377 10.223852-18.174941 21.057595 0.748037 10.354835 9.393951 18.23327 19.596314 18.23327 0.480954 0 0.981351-0.016373 1.461281-0.058328l409.537374-30.241768c26.861788-0.152473 50.417273-20.672832 53.468772-45.728484L939.517887 250.846118C941.634084 233.302557 936.36815 214.951607 925.820933 203.003484L925.820933 203.003484zM925.820933 203.003484" p-id="5023" fill="#E8677E"></path><path d="M796.019659 815.722396c-29.286 0-53.108568 23.827685-53.108568 53.104475 0 29.264511 23.838941 53.088102 53.108568 53.088102 29.248138 0 53.078893-23.826662 53.078893-53.088102C849.099574 839.550081 825.281099 815.722396 796.019659 815.722396L796.019659 815.722396zM796.019659 815.722396" p-id="5024" fill="#E8677E"></path><path d="M379.569852 815.722396c-29.281907 0-53.108568 23.827685-53.108568 53.104475 0 29.264511 23.838941 53.088102 53.108568 53.088102 29.248138 0 53.082986-23.826662 53.082986-53.088102C432.653861 839.550081 408.831292 815.722396 379.569852 815.722396L379.569852 815.722396zM379.569852 815.722396" p-id="5025" fill="#E8677E"></path></svg>